<svg width="17" height="17" viewBox="0 0 17 17" fill="none" xmlns="http://www.w3.org/2000/svg">
<path d="M5.46647 10.11L2.43313 4.87003C2.30234 4.64394 2.24082 4.38442 2.25623 4.12368C2.27164 3.86294 2.36329 3.61247 2.5198 3.40336L3.59314 1.97669C3.71733 1.8111 3.87838 1.67669 4.06352 1.58412C4.24866 1.49155 4.45281 1.44336 4.6598 1.44336H12.6598C12.8668 1.44336 13.0709 1.49155 13.2561 1.58412C13.4412 1.67669 13.6023 1.8111 13.7265 1.97669L14.7931 3.40336C14.9507 3.61179 15.0435 3.86192 15.0601 4.12267C15.0767 4.38342 15.0163 4.6433 14.8865 4.87003L11.8531 10.11" stroke="white" stroke-width="1.33333" stroke-linecap="round" stroke-linejoin="round"/>
<path d="M7.99324 8.11048L4.07324 1.57715" stroke="white" stroke-width="1.33333" stroke-linecap="round" stroke-linejoin="round"/>
<path d="M9.32715 8.11048L13.2471 1.57715" stroke="white" stroke-width="1.33333" stroke-linecap="round" stroke-linejoin="round"/>
<path d="M5.99316 4.77734H11.3265" stroke="white" stroke-width="1.33333" stroke-linecap="round" stroke-linejoin="round"/>
<path d="M8.66048 14.777C10.5014 14.777 11.9938 13.2846 11.9938 11.4437C11.9938 9.60274 10.5014 8.11035 8.66048 8.11035C6.81953 8.11035 5.32715 9.60274 5.32715 11.4437C5.32715 13.2846 6.81953 14.777 8.66048 14.777Z" stroke="white" stroke-width="1.33333" stroke-linecap="round" stroke-linejoin="round"/>
<path d="M8.66048 12.1107V10.7773H8.32715" stroke="white" stroke-width="1.33333" stroke-linecap="round" stroke-linejoin="round"/>
</svg>
