<svg width="17" height="17" viewBox="0 0 17 17" fill="none" xmlns="http://www.w3.org/2000/svg">
<path d="M10.6479 8.7041L11.6579 14.3881C11.6692 14.455 11.6598 14.5238 11.631 14.5853C11.6022 14.6467 11.5552 14.6979 11.4965 14.732C11.4378 14.766 11.3701 14.7814 11.3024 14.7759C11.2348 14.7705 11.1704 14.7445 11.1179 14.7014L8.73125 12.9101C8.61603 12.824 8.47607 12.7775 8.33225 12.7775C8.18843 12.7775 8.04846 12.824 7.93325 12.9101L5.54258 14.7008C5.49013 14.7437 5.42582 14.7697 5.35824 14.7751C5.29066 14.7806 5.22303 14.7653 5.16435 14.7313C5.10568 14.6974 5.05876 14.6463 5.02986 14.585C5.00095 14.5237 4.99144 14.455 5.00258 14.3881L6.01191 8.7041" stroke="white" stroke-width="1.33333" stroke-linecap="round" stroke-linejoin="round"/>
<path d="M8.33008 9.44336C10.5392 9.44336 12.3301 7.6525 12.3301 5.44336C12.3301 3.23422 10.5392 1.44336 8.33008 1.44336C6.12094 1.44336 4.33008 3.23422 4.33008 5.44336C4.33008 7.6525 6.12094 9.44336 8.33008 9.44336Z" stroke="white" stroke-width="1.33333" stroke-linecap="round" stroke-linejoin="round"/>
</svg>
