<svg width="16" height="17" viewBox="0 0 16 17" fill="none" xmlns="http://www.w3.org/2000/svg">
<path d="M7.70796 2.27706C7.73673 2.22479 7.77901 2.18121 7.83037 2.15086C7.88173 2.1205 7.9403 2.10449 7.99996 2.10449C8.05962 2.10449 8.11819 2.1205 8.16955 2.15086C8.22091 2.18121 8.26318 2.22479 8.29196 2.27706L10.26 6.01306C10.3069 6.09956 10.3724 6.17461 10.4518 6.2328C10.5311 6.29099 10.6224 6.33089 10.719 6.34963C10.8156 6.36837 10.9152 6.36548 11.0106 6.34117C11.106 6.31687 11.1948 6.27175 11.2706 6.20906L14.122 3.76639C14.1767 3.72187 14.2441 3.69587 14.3146 3.69212C14.3851 3.68838 14.4549 3.70709 14.514 3.74555C14.5732 3.78402 14.6186 3.84026 14.6437 3.90618C14.6689 3.9721 14.6725 4.0443 14.654 4.11239L12.7646 10.9431C12.7261 11.0828 12.643 11.2062 12.528 11.2945C12.413 11.3828 12.2723 11.4312 12.1273 11.4324H3.87329C3.72818 11.4314 3.58736 11.383 3.47222 11.2947C3.35707 11.2064 3.27389 11.0829 3.23529 10.9431L1.34662 4.11306C1.32812 4.04497 1.3317 3.97277 1.35685 3.90685C1.382 3.84093 1.42741 3.78469 1.48656 3.74622C1.5457 3.70775 1.61553 3.68904 1.68598 3.69279C1.75644 3.69653 1.82389 3.72254 1.87862 3.76706L4.72929 6.20972C4.80516 6.27242 4.89396 6.31754 4.98933 6.34184C5.0847 6.36614 5.18427 6.36903 5.28089 6.35029C5.37751 6.33156 5.46878 6.29166 5.54815 6.23347C5.62752 6.17527 5.69303 6.10023 5.73996 6.01372L7.70796 2.27706Z" stroke="white" stroke-width="1.33333" stroke-linecap="round" stroke-linejoin="round"/>
<path d="M3.33301 14.0996H12.6663" stroke="white" stroke-width="1.33333" stroke-linecap="round" stroke-linejoin="round"/>
</svg>
