<svg width="21" height="20" viewBox="0 0 21 20" fill="none" xmlns="http://www.w3.org/2000/svg">
<g clip-path="url(#clip0_402_121)">
<path d="M10.6908 2.15533C10.3783 1.84274 9.95447 1.66709 9.51247 1.66699H3.53581C3.09378 1.66699 2.66986 1.84259 2.3573 2.15515C2.04474 2.46771 1.86914 2.89163 1.86914 3.33366V9.31033C1.86924 9.75232 2.04489 10.1762 2.35747 10.4887L9.61081 17.742C9.98957 18.1184 10.5018 18.3296 11.0358 18.3296C11.5698 18.3296 12.082 18.1184 12.4608 17.742L17.9441 12.2587C18.3205 11.8799 18.5318 11.3676 18.5318 10.8337C18.5318 10.2997 18.3205 9.78742 17.9441 9.40866L10.6908 2.15533Z" stroke="#CC0000" stroke-width="2" stroke-linecap="round" stroke-linejoin="round"/>
<path d="M6.45378 6.66634C6.68389 6.66634 6.87044 6.47979 6.87044 6.24967C6.87044 6.01956 6.68389 5.83301 6.45378 5.83301C6.22366 5.83301 6.03711 6.01956 6.03711 6.24967C6.03711 6.47979 6.22366 6.66634 6.45378 6.66634Z" fill="black" stroke="#CC0000" stroke-width="2" stroke-linecap="round" stroke-linejoin="round"/>
</g>
<defs>
<clipPath id="clip0_402_121">
<rect width="20" height="20" fill="white" transform="translate(0.203125)"/>
</clipPath>
</defs>
</svg>
