<svg width="21" height="20" viewBox="0 0 21 20" fill="none" xmlns="http://www.w3.org/2000/svg">
<path d="M17.0736 8.33366C17.0736 12.4945 12.4577 16.8278 10.9077 18.1662C10.7633 18.2747 10.5876 18.3335 10.4069 18.3335C10.2262 18.3335 10.0505 18.2747 9.90607 18.1662C8.35607 16.8278 3.74023 12.4945 3.74023 8.33366C3.74023 6.56555 4.44261 4.86986 5.69286 3.61961C6.9431 2.36937 8.63879 1.66699 10.4069 1.66699C12.175 1.66699 13.8707 2.36937 15.1209 3.61961C16.3712 4.86986 17.0736 6.56555 17.0736 8.33366Z" stroke="#CC0000" stroke-width="2" stroke-linecap="round" stroke-linejoin="round"/>
<path d="M10.4062 10.833C11.787 10.833 12.9062 9.71372 12.9062 8.33301C12.9062 6.9523 11.787 5.83301 10.4062 5.83301C9.02554 5.83301 7.90625 6.9523 7.90625 8.33301C7.90625 9.71372 9.02554 10.833 10.4062 10.833Z" stroke="#CC0000" stroke-width="2" stroke-linecap="round" stroke-linejoin="round"/>
</svg>
