<svg width="14" height="14" viewBox="0 0 14 14" fill="none" xmlns="http://www.w3.org/2000/svg">
<path d="M13.16 7.14648C13.16 6.69148 13.1192 6.25398 13.0433 5.83398H7V8.31898H10.4533C10.3017 9.11815 9.84667 9.79482 9.16417 10.2498V11.8657H11.2467C12.46 10.7457 13.16 9.10065 13.16 7.14648Z" fill="#4285F4"/>
<path d="M6.99982 13.4163C8.73232 13.4163 10.1848 12.8446 11.2465 11.8646L9.16398 10.2488C8.59232 10.6338 7.86315 10.8671 6.99982 10.8671C5.33148 10.8671 3.91398 9.74128 3.40648 8.22461H1.27148V9.88128C2.32732 11.9754 4.49148 13.4163 6.99982 13.4163Z" fill="#34A853"/>
<path d="M3.40732 8.22C3.27898 7.835 3.20315 7.42667 3.20315 7.00083C3.20315 6.575 3.27898 6.16667 3.40732 5.78167V4.125H1.27232C0.834818 4.98833 0.583984 5.9625 0.583984 7.00083C0.583984 8.03917 0.834818 9.01333 1.27232 9.87667L2.93482 8.58167L3.40732 8.22Z" fill="#FBBC05"/>
<path d="M6.99982 3.13898C7.94482 3.13898 8.78482 3.46565 9.45565 4.09565L11.2932 2.25815C10.179 1.21982 8.73232 0.583984 6.99982 0.583984C4.49148 0.583984 2.32732 2.02482 1.27148 4.12482L3.40648 5.78148C3.91398 4.26482 5.33148 3.13898 6.99982 3.13898Z" fill="#EA4335"/>
</svg>
