<svg xmlns="http://www.w3.org/2000/svg" xml:space="preserve" width="257.83066" height="95.273438" viewBox="0 0 257.83066 95.273436"><path d="m320.762 722.265-2.234-4.519-4.989-.723 3.608-3.525-.852-4.966 4.467 2.344 4.462-2.344-.85 4.966 3.61 3.525-4.992.723zm-37.246-15.394v-6.126h18.088v-4.044c0-.733-.387-1.096-1.156-1.096h-13.524c-2.813 0-4.218-1.373-4.218-4.104v-7.017c0-2.617.513-4.474 1.533-5.577 1.017-1.094 2.973-1.778 5.867-2.05.69-.074 1.576-.112 2.656-.112 3.194 0 6.684.23 10.46.693 4.158.503 7.047 1.097 8.662 1.792 2.044.923 3.72 2.14 5.03 3.643v-9.512c-1.606.556-3.461.85-5.453.85-3.93 0-7.104-1.057-9.53-3.174-2.428-2.118-3.64-4.95-3.64-8.496 0-3.545 1.212-6.388 3.64-8.521 2.426-2.137 5.6-3.208 9.53-3.208 3.892 0 7.053 1.072 9.477 3.208 2.43 2.134 3.652 4.976 3.652 8.52l.01 40.627c0 2.47-1.236 3.704-3.71 3.704h-3.974V693.27c0-4.74-2.009-7.683-6.014-8.84-2.622-.731-6.87-1.096-12.766-1.096-2.62 0-4.626.096-6.009.29-1.117.15-1.677.651-1.677 1.501v3.198c0 .965.484 1.444 1.445 1.444h12.943c3.003 0 4.506 1.503 4.506 4.508v8.893c0 2.47-1.238 3.704-3.708 3.704zm51.348 0v-6.181h26.88l-.006-5.814h-27.454v-6.008h20.64a49.823 49.823 0 0 1 6.655.45c-.19-4.106-.536-7.637-1.04-9.004-.772-2.072-1.654-3.46-2.662-4.16-1.186-.846-2.985-1.27-5.606-1.27h-23.936v-6.296h45.371c.957 0 1.724.31 2.281.925.558.616.836 1.348.836 2.193v3.177H363.94c1.232 1.16 2.271 2.74 3.117 4.74.695 1.659 1.275 4.892 1.738 9.71.423 4.196.518 5.527.518 7.363v6.47c0 2.47-1.233 3.705-3.706 3.705zm-23.403-38.491c1.659 0 3.03-.551 4.13-1.651 1.1-1.093 1.65-2.49 1.65-4.188 0-1.73-.55-3.138-1.65-4.218-1.095-1.076-2.471-1.614-4.13-1.614-1.691 0-3.091.538-4.188 1.614-1.097 1.08-1.644 2.489-1.644 4.218 0 1.7.546 3.095 1.64 4.19 1.103 1.098 2.5 1.649 4.192 1.649z" style="display:inline;fill:#e64136;fill-opacity:1;fill-rule:nonzero;stroke:none" transform="matrix(1.33333 0 0 -1.33333 -244.602 963.022)"/><path d="M217.252 711.283v-22.902c0-2.62-.425-4.527-1.27-5.715-.695-1.004-2.084-1.891-4.16-2.664-2.198-.806-6.685-1.21-13.465-1.21-2.004 0-3.332.09-3.988.284-2.118.579-3.175 2.027-3.175 4.339v5.357h16.062v5.778h-23.562l-.244-.019v-11.81c0-6.667 3.237-10.091 9.707-10.285 2.234-.075 5.451.095 9.651.52 4.816.462 8.049 1.038 9.707 1.733 2.002.845 3.58 1.885 4.737 3.115v-15.42h3.811c1.081 0 1.994.344 2.741 1.036.755.693 1.13 1.676 1.13 2.948v41.212c0 2.47-1.232 3.703-3.704 3.703zm41.333 0v-13.425h-5.663c.466 1.772.85 3.694.988 4.65.134.958.21 1.408.21 1.712 0 2.036-1.627 2.651-3.456 2.651h-18.367v-6.01h13c-.12-2.004-.401-3.683-.866-5.372h-13.118v-5.723h7.285c1.193 0 2.37.097 3.523.284-2.118-3.42-5.392-6.446-9.824-9.063-1.04-.617-1.558-1.466-1.558-2.543 0-.735.258-1.383.779-1.938.523-.558 1.186-.834 1.994-.834.462 0 .926.093 1.388.287 7.2 2.888 12.495 8.127 15.89 15.713h7.795v-12.65h3.474c.922 0 1.73.337 2.424 1.009.693.674 1.04 1.63 1.04 2.86v24.69c0 2.47-1.236 3.702-3.706 3.702zm10.58 0V675.96h3.517c.966 0 1.816.337 2.546 1.01.735.68 1.1 1.609 1.1 2.803v27.808c0 2.47-1.236 3.703-3.71 3.703zm-85.713-4.527v-6.242h25.072v2.538c0 2.468-1.234 3.704-3.704 3.704zm71.09-32.586v-1.561c0-6.047-4.503-10.898-13.519-14.561-1.35-.537-2.023-1.401-2.023-2.597 0-.811.345-1.494 1.043-2.051.69-.557 1.56-.762 2.598-.605 2.27.38 5.008 1.44 8.206 3.174 3.852 2.041 6.39 4.179 7.629 6.415 1.304-2.2 3.902-4.355 7.795-6.472 3.275-1.77 5.912-2.815 7.918-3.117.306-.04.596-.059.866-.059.963 0 1.728.258 2.285.775.556.521.835 1.129.835 1.823 0 1.238-.655 2.12-1.966 2.655-3.349 1.39-6.257 3.124-8.723 5.206-2.95 2.554-4.668 5.212-5.108 7.966 0 0 .024-.24 0-.03-.21 2.024-1.435 3.039-3.672 3.039z" style="display:inline;fill:#424242;fill-opacity:1;fill-rule:nonzero;stroke:none" transform="matrix(1.33333 0 0 -1.33333 -244.602 963.022)"/></svg>