<svg width="21" height="21" viewBox="0 0 21 21" fill="none" xmlns="http://www.w3.org/2000/svg">
<path d="M19.0139 15.7504L12.0139 3.50044C11.8612 3.23112 11.6399 3.0071 11.3724 2.85125C11.105 2.6954 10.8009 2.61328 10.4914 2.61328C10.1818 2.61328 9.87778 2.6954 9.61031 2.85125C9.34284 3.0071 9.1215 3.23112 8.96887 3.50044L1.96887 15.7504C1.81459 16.0176 1.7337 16.3209 1.73438 16.6294C1.73506 16.9379 1.8173 17.2408 1.97276 17.5073C2.12822 17.7738 2.35138 17.9945 2.6196 18.1469C2.88783 18.2994 3.1916 18.3782 3.50012 18.3754H17.5001C17.8072 18.3751 18.1087 18.294 18.3745 18.1403C18.6403 17.9866 18.8609 17.7656 19.0143 17.4997C19.1677 17.2337 19.2484 16.932 19.2483 16.625C19.2482 16.318 19.1674 16.0163 19.0139 15.7504Z" stroke="#CC0000" stroke-width="1.75" stroke-linecap="round" stroke-linejoin="round"/>
<path d="M10.5 7.875V11.375" stroke="#CC0000" stroke-width="1.75" stroke-linecap="round" stroke-linejoin="round"/>
<path d="M10.5 14.875H10.5088" stroke="#CC0000" stroke-width="1.75" stroke-linecap="round" stroke-linejoin="round"/>
</svg>
