<svg width="28" height="28" viewBox="0 0 28 28" fill="none" xmlns="http://www.w3.org/2000/svg">
<path d="M2.33398 11.084C2.33401 9.78569 2.72784 8.51796 3.46347 7.44822C4.1991 6.37849 5.24192 5.55705 6.45419 5.09242C7.66647 4.62778 8.99117 4.5418 10.2533 4.84583C11.5155 5.14987 12.6557 5.82961 13.5235 6.79528C13.5846 6.86063 13.6585 6.91273 13.7406 6.94835C13.8227 6.98397 13.9112 7.00235 14.0007 7.00235C14.0901 7.00235 14.1786 6.98397 14.2607 6.94835C14.3428 6.91273 14.4167 6.86063 14.4778 6.79528C15.3428 5.82333 16.4833 5.13788 17.7476 4.83015C19.0118 4.52242 20.3397 4.60702 21.5547 5.07268C22.7696 5.53834 23.8139 6.36298 24.5486 7.43684C25.2833 8.51069 25.6735 9.78284 25.6673 11.084C25.6673 13.7556 23.9173 15.7506 22.1673 17.5006L15.76 23.6991C15.5426 23.9488 15.2746 24.1494 14.9737 24.2875C14.6728 24.4256 14.346 24.4981 14.015 24.5002C13.6839 24.5023 13.3562 24.4339 13.0537 24.2996C12.7511 24.1653 12.4805 23.9682 12.26 23.7213L5.83398 17.5006C4.08398 15.7506 2.33398 13.7673 2.33398 11.084Z" fill="#CC0000" stroke="#CC0000" stroke-width="2.33333" stroke-linecap="round" stroke-linejoin="round"/>
</svg>
