<svg width="18" height="18" viewBox="0 0 18 18" fill="none" xmlns="http://www.w3.org/2000/svg">
<path d="M7.29102 8.75H10.2077" stroke="#717182" stroke-width="1.45833" stroke-linecap="round" stroke-linejoin="round"/>
<path d="M7.29102 5.83203H10.2077" stroke="#717182" stroke-width="1.45833" stroke-linecap="round" stroke-linejoin="round"/>
<path d="M10.2077 15.3138V13.1263C10.2077 12.7395 10.054 12.3686 9.78055 12.0951C9.50706 11.8216 9.13612 11.668 8.74935 11.668C8.36257 11.668 7.99164 11.8216 7.71815 12.0951C7.44466 12.3686 7.29102 12.7395 7.29102 13.1263V15.3138" stroke="#717182" stroke-width="1.45833" stroke-linecap="round" stroke-linejoin="round"/>
<path d="M4.37565 7.29297H2.91732C2.53054 7.29297 2.15961 7.44661 1.88612 7.7201C1.61263 7.9936 1.45898 8.36453 1.45898 8.7513V13.8555C1.45898 14.2422 1.61263 14.6132 1.88612 14.8867C2.15961 15.1602 2.53054 15.3138 2.91732 15.3138H14.584C14.9708 15.3138 15.3417 15.1602 15.6152 14.8867C15.8887 14.6132 16.0423 14.2422 16.0423 13.8555V6.5638C16.0423 6.17703 15.8887 5.8061 15.6152 5.5326C15.3417 5.25911 14.9708 5.10547 14.584 5.10547H13.1257" stroke="#717182" stroke-width="1.45833" stroke-linecap="round" stroke-linejoin="round"/>
<path d="M4.375 15.3125V3.64583C4.375 3.25906 4.52865 2.88813 4.80214 2.61464C5.07563 2.34115 5.44656 2.1875 5.83333 2.1875H11.6667C12.0534 2.1875 12.4244 2.34115 12.6979 2.61464C12.9714 2.88813 13.125 3.25906 13.125 3.64583V15.3125" stroke="#717182" stroke-width="1.45833" stroke-linecap="round" stroke-linejoin="round"/>
</svg>
