<svg width="18" height="18" viewBox="0 0 18 18" fill="none" xmlns="http://www.w3.org/2000/svg">
<g clip-path="url(#clip0_1277_4811)">
<path d="M8.4314 2.3821C8.46287 2.32494 8.50911 2.27727 8.56529 2.24407C8.62147 2.21087 8.68552 2.19336 8.75078 2.19336C8.81603 2.19336 8.88009 2.21087 8.93627 2.24407C8.99244 2.27727 9.03868 2.32494 9.07015 2.3821L11.2227 6.46835C11.274 6.56297 11.3456 6.64505 11.4324 6.7087C11.5193 6.77234 11.6191 6.81598 11.7248 6.83648C11.8304 6.85697 11.9393 6.85381 12.0436 6.82723C12.148 6.80065 12.2451 6.7513 12.3281 6.68272L15.4467 4.01106C15.5066 3.96237 15.5804 3.93392 15.6574 3.92983C15.7345 3.92573 15.8108 3.9462 15.8755 3.98827C15.9402 4.03034 15.9899 4.09186 16.0174 4.16396C16.0449 4.23606 16.0488 4.31503 16.0286 4.3895L13.9621 11.8605C13.9199 12.0134 13.8291 12.1484 13.7033 12.245C13.5775 12.3415 13.4236 12.3945 13.265 12.3957H4.23724C4.07852 12.3946 3.9245 12.3418 3.79856 12.2452C3.67262 12.1486 3.58164 12.0135 3.53942 11.8605L1.47369 4.39022C1.45346 4.31576 1.45738 4.23679 1.48488 4.16469C1.51238 4.09259 1.56206 4.03107 1.62675 3.989C1.69144 3.94693 1.76781 3.92646 1.84487 3.93056C1.92193 3.93465 1.9957 3.96309 2.05557 4.01179L5.17349 6.68345C5.25646 6.75203 5.3536 6.80138 5.45791 6.82796C5.56222 6.85454 5.67112 6.8577 5.7768 6.83721C5.88247 6.81671 5.9823 6.77307 6.06911 6.70943C6.15593 6.64578 6.22757 6.5637 6.2789 6.46908L8.4314 2.3821Z" stroke="#F0B100" stroke-width="1.45833" stroke-linecap="round" stroke-linejoin="round"/>
<path d="M3.64648 15.3125H13.8548" stroke="#F0B100" stroke-width="1.45833" stroke-linecap="round" stroke-linejoin="round"/>
</g>
<defs>
<clipPath id="clip0_1277_4811">
<rect width="17.5" height="17.5" fill="white"/>
</clipPath>
</defs>
</svg>
