<svg width="18" height="18" viewBox="0 0 18 18" fill="none" xmlns="http://www.w3.org/2000/svg">
<path d="M7.29206 14.5833C7.29199 14.7188 7.32969 14.8517 7.40091 14.9669C7.47214 15.0822 7.57407 15.1754 7.69528 15.2359L9.15362 15.9651C9.26481 16.0207 9.38837 16.0469 9.51254 16.0413C9.63672 16.0356 9.7574 15.9984 9.86312 15.933C9.96884 15.8676 10.0561 15.7763 10.1166 15.6677C10.1771 15.5591 10.2088 15.4368 10.2087 15.3125V10.2083C10.2089 9.84694 10.3432 9.49849 10.5857 9.23052L15.8525 3.40521C15.9469 3.30062 16.0089 3.17091 16.0312 3.03179C16.0534 2.89267 16.0349 2.75008 15.9778 2.62126C15.9207 2.49245 15.8276 2.38293 15.7096 2.30595C15.5916 2.22898 15.4538 2.18783 15.3129 2.1875H2.18789C2.04687 2.18755 1.9089 2.22849 1.79067 2.30536C1.67245 2.38223 1.57906 2.49173 1.5218 2.6206C1.46454 2.74947 1.44588 2.89217 1.46807 3.03143C1.49027 3.17069 1.55237 3.30052 1.64685 3.40521L6.91508 9.23052C7.15755 9.49849 7.29189 9.84694 7.29206 10.2083V14.5833Z" stroke="#0A0A0A" stroke-width="1.45833" stroke-linecap="round" stroke-linejoin="round"/>
</svg>
