<svg width="14" height="14" viewBox="0 0 14 14" fill="none" xmlns="http://www.w3.org/2000/svg">
<g clip-path="url(#clip0_2218_351)">
<path d="M1.16602 5.54198C1.16603 4.89284 1.36295 4.25898 1.73076 3.72411C2.09857 3.18924 2.61998 2.77853 3.22612 2.54621C3.83226 2.31389 4.49461 2.2709 5.12569 2.42292C5.75677 2.57493 6.3269 2.91481 6.76077 3.39764C6.79132 3.43032 6.82827 3.45637 6.86931 3.47418C6.91035 3.49198 6.95461 3.50117 6.99935 3.50117C7.04409 3.50117 7.08835 3.49198 7.12939 3.47418C7.17043 3.45637 7.20737 3.43032 7.23793 3.39764C7.67044 2.91167 8.24069 2.56894 8.8728 2.41508C9.50491 2.26121 10.1689 2.30351 10.7764 2.53634C11.3838 2.76917 11.906 3.18149 12.2733 3.71842C12.6407 4.25535 12.8358 4.89142 12.8327 5.54198C12.8327 6.87781 11.9577 7.87531 11.0827 8.75031L7.87902 11.8496C7.77032 11.9744 7.63631 12.0747 7.48588 12.1437C7.33544 12.2128 7.17204 12.2491 7.00652 12.2501C6.84099 12.2512 6.67714 12.217 6.52585 12.1498C6.37456 12.0827 6.23928 11.9841 6.12902 11.8606L2.91602 8.75031C2.04102 7.87531 1.16602 6.88364 1.16602 5.54198Z" stroke="#0A0A0A" stroke-width="1.16667" stroke-linecap="round" stroke-linejoin="round"/>
</g>
<defs>
<clipPath id="clip0_2218_351">
<rect width="14" height="14" fill="white"/>
</clipPath>
</defs>
</svg>
