<svg width="14" height="14" viewBox="0 0 14 14" fill="none" xmlns="http://www.w3.org/2000/svg">
<path d="M8.75 12.25V7.58333C8.75 7.42862 8.68854 7.28025 8.57915 7.17085C8.46975 7.06146 8.32138 7 8.16667 7H5.83333C5.67862 7 5.53025 7.06146 5.42085 7.17085C5.31146 7.28025 5.25 7.42862 5.25 7.58333V12.25" stroke="#364153" stroke-width="1.16667" stroke-linecap="round" stroke-linejoin="round"/>
<path d="M1.75 5.83296C1.74996 5.66325 1.78694 5.49558 1.85838 5.34163C1.92981 5.18768 2.03397 5.05118 2.16358 4.94163L6.24692 1.44163C6.45749 1.26366 6.72429 1.16602 7 1.16602C7.27571 1.16602 7.54251 1.26366 7.75308 1.44163L11.8364 4.94163C11.966 5.05118 12.0702 5.18768 12.1416 5.34163C12.2131 5.49558 12.25 5.66325 12.25 5.83296V11.083C12.25 11.3924 12.1271 11.6891 11.9083 11.9079C11.6895 12.1267 11.3928 12.2496 11.0833 12.2496H2.91667C2.60725 12.2496 2.3105 12.1267 2.09171 11.9079C1.87292 11.6891 1.75 11.3924 1.75 11.083V5.83296Z" stroke="#364153" stroke-width="1.16667" stroke-linecap="round" stroke-linejoin="round"/>
</svg>
