<svg width="11" height="11" viewBox="0 0 11 11" fill="none" xmlns="http://www.w3.org/2000/svg">
<g clip-path="url(#clip0_1309_6406)">
<path d="M8.75 4.375C8.75 6.55944 6.32669 8.83444 5.51294 9.53706C5.43713 9.59407 5.34485 9.62489 5.25 9.62489C5.15515 9.62489 5.06287 9.59407 4.98706 9.53706C4.17331 8.83444 1.75 6.55944 1.75 4.375C1.75 3.44674 2.11875 2.5565 2.77513 1.90013C3.4315 1.24375 4.32174 0.875 5.25 0.875C6.17826 0.875 7.0685 1.24375 7.72487 1.90013C8.38125 2.5565 8.75 3.44674 8.75 4.375Z" stroke="#6A7282" stroke-width="0.875" stroke-linecap="round" stroke-linejoin="round"/>
<path d="M5.25 5.6875C5.97487 5.6875 6.5625 5.09987 6.5625 4.375C6.5625 3.65013 5.97487 3.0625 5.25 3.0625C4.52513 3.0625 3.9375 3.65013 3.9375 4.375C3.9375 5.09987 4.52513 5.6875 5.25 5.6875Z" stroke="#6A7282" stroke-width="0.875" stroke-linecap="round" stroke-linejoin="round"/>
</g>
<defs>
<clipPath id="clip0_1309_6406">
<rect width="10.5" height="10.5" fill="white"/>
</clipPath>
</defs>
</svg>
