<svg width="14" height="14" viewBox="0 0 14 14" fill="none" xmlns="http://www.w3.org/2000/svg">
<path d="M11.6673 5.83268C11.6673 8.74527 8.43623 11.7786 7.35123 12.7154C7.25016 12.7914 7.12712 12.8325 7.00065 12.8325C6.87419 12.8325 6.75115 12.7914 6.65007 12.7154C5.56507 11.7786 2.33398 8.74527 2.33398 5.83268C2.33398 4.59501 2.82565 3.40802 3.70082 2.53285C4.57599 1.65768 5.76297 1.16602 7.00065 1.16602C8.23833 1.16602 9.42531 1.65768 10.3005 2.53285C11.1757 3.40802 11.6673 4.59501 11.6673 5.83268Z" stroke="#717182" stroke-width="1.16667" stroke-linecap="round" stroke-linejoin="round"/>
<path d="M7 7.58398C7.9665 7.58398 8.75 6.80048 8.75 5.83398C8.75 4.86749 7.9665 4.08398 7 4.08398C6.0335 4.08398 5.25 4.86749 5.25 5.83398C5.25 6.80048 6.0335 7.58398 7 7.58398Z" stroke="#717182" stroke-width="1.16667" stroke-linecap="round" stroke-linejoin="round"/>
</svg>
