<svg width="18" height="18" viewBox="0 0 18 18" fill="none" xmlns="http://www.w3.org/2000/svg">
<path d="M5.25788 10.9382L1.94017 5.2069C1.79711 4.95962 1.72983 4.67577 1.74668 4.39058C1.76353 4.1054 1.86378 3.83145 2.03496 3.60273L3.20892 2.04232C3.34476 1.8612 3.5209 1.71419 3.7234 1.61294C3.9259 1.5117 4.14919 1.45898 4.37559 1.45898H13.1256C13.352 1.45898 13.5753 1.5117 13.7778 1.61294C13.9803 1.71419 14.1564 1.8612 14.2923 2.04232L15.4589 3.60273C15.6312 3.83071 15.7328 4.10429 15.7509 4.38948C15.7691 4.67468 15.703 4.95892 15.561 5.2069L12.2433 10.9382" stroke="#99A1AF" stroke-width="1.45833" stroke-linecap="round" stroke-linejoin="round"/>
<path d="M8.01992 8.74935L3.73242 1.60352" stroke="#99A1AF" stroke-width="1.45833" stroke-linecap="round" stroke-linejoin="round"/>
<path d="M9.47852 8.74935L13.766 1.60352" stroke="#99A1AF" stroke-width="1.45833" stroke-linecap="round" stroke-linejoin="round"/>
<path d="M5.83398 5.10352H11.6673" stroke="#99A1AF" stroke-width="1.45833" stroke-linecap="round" stroke-linejoin="round"/>
<path d="M8.74935 16.0417C10.7629 16.0417 12.3952 14.4094 12.3952 12.3958C12.3952 10.3823 10.7629 8.75 8.74935 8.75C6.73581 8.75 5.10352 10.3823 5.10352 12.3958C5.10352 14.4094 6.73581 16.0417 8.74935 16.0417Z" stroke="#99A1AF" stroke-width="1.45833" stroke-linecap="round" stroke-linejoin="round"/>
<path d="M8.74935 13.1243V11.666H8.38477" stroke="#99A1AF" stroke-width="1.45833" stroke-linecap="round" stroke-linejoin="round"/>
</svg>
