<svg width="18" height="18" viewBox="0 0 18 18" fill="none" xmlns="http://www.w3.org/2000/svg">
<path d="M11.6673 15.3125V13.8542C11.6673 13.0806 11.36 12.3388 10.813 11.7918C10.2661 11.2448 9.5242 10.9375 8.75065 10.9375H4.37565C3.6021 10.9375 2.86024 11.2448 2.31326 11.7918C1.76628 12.3388 1.45898 13.0806 1.45898 13.8542V15.3125" stroke="#717182" stroke-width="1.45833" stroke-linecap="round" stroke-linejoin="round"/>
<path d="M11.666 2.28125C12.2915 2.44339 12.8454 2.80863 13.2408 3.31963C13.6362 3.83063 13.8507 4.45846 13.8507 5.10458C13.8507 5.75071 13.6362 6.37854 13.2408 6.88954C12.8454 7.40054 12.2915 7.76577 11.666 7.92792" stroke="#717182" stroke-width="1.45833" stroke-linecap="round" stroke-linejoin="round"/>
<path d="M16.041 15.3134V13.8551C16.0405 13.2088 15.8254 12.5811 15.4295 12.0703C15.0336 11.5596 14.4792 11.1948 13.8535 11.0332" stroke="#717182" stroke-width="1.45833" stroke-linecap="round" stroke-linejoin="round"/>
<path d="M6.56315 8.02083C8.17398 8.02083 9.47982 6.715 9.47982 5.10417C9.47982 3.49334 8.17398 2.1875 6.56315 2.1875C4.95232 2.1875 3.64648 3.49334 3.64648 5.10417C3.64648 6.715 4.95232 8.02083 6.56315 8.02083Z" stroke="#717182" stroke-width="1.45833" stroke-linecap="round" stroke-linejoin="round"/>
</svg>
