<svg width="14" height="14" viewBox="0 0 14 14" fill="none" xmlns="http://www.w3.org/2000/svg">
<g clip-path="url(#clip0_2222_562)">
<path d="M8.06802 9.66402C8.18849 9.71934 8.32422 9.73198 8.45284 9.69986C8.58146 9.66773 8.69529 9.59275 8.7756 9.48727L8.98268 9.21602C9.09135 9.07112 9.23227 8.95352 9.39427 8.87252C9.55627 8.79152 9.7349 8.74935 9.91602 8.74935H11.666C11.9754 8.74935 12.2722 8.87227 12.491 9.09106C12.7098 9.30985 12.8327 9.6066 12.8327 9.91602V11.666C12.8327 11.9754 12.7098 12.2722 12.491 12.491C12.2722 12.7098 11.9754 12.8327 11.666 12.8327C8.88124 12.8327 6.21053 11.7264 4.24139 9.7573C2.27226 7.78817 1.16602 5.11746 1.16602 2.33268C1.16602 2.02326 1.28893 1.72652 1.50772 1.50772C1.72652 1.28893 2.02326 1.16602 2.33268 1.16602H4.08268C4.3921 1.16602 4.68885 1.28893 4.90764 1.50772C5.12643 1.72652 5.24935 2.02326 5.24935 2.33268V4.08268C5.24935 4.2638 5.20718 4.44243 5.12618 4.60443C5.04518 4.76643 4.92758 4.90734 4.78268 5.01602L4.50968 5.22077C4.40259 5.30254 4.32711 5.41886 4.29606 5.54997C4.26501 5.68108 4.28031 5.8189 4.33935 5.94002C5.13658 7.55927 6.44776 8.86881 8.06802 9.66402Z" stroke="#99A1AF" stroke-width="1.16667" stroke-linecap="round" stroke-linejoin="round"/>
</g>
<defs>
<clipPath id="clip0_2222_562">
<rect width="14" height="14" fill="white"/>
</clipPath>
</defs>
</svg>
