<svg width="14" height="14" viewBox="0 0 14 14" fill="none" xmlns="http://www.w3.org/2000/svg">
<g clip-path="url(#clip0_1278_5328)">
<path d="M1.16602 5.24935C1.63014 5.24935 2.07526 5.43372 2.40345 5.76191C2.73164 6.0901 2.91602 6.53522 2.91602 6.99935C2.91602 7.46348 2.73164 7.9086 2.40345 8.23679C2.07526 8.56498 1.63014 8.74935 1.16602 8.74935V9.91602C1.16602 10.2254 1.28893 10.5222 1.50772 10.741C1.72652 10.9598 2.02326 11.0827 2.33268 11.0827H11.666C11.9754 11.0827 12.2722 10.9598 12.491 10.741C12.7098 10.5222 12.8327 10.2254 12.8327 9.91602V8.74935C12.3686 8.74935 11.9234 8.56498 11.5952 8.23679C11.2671 7.9086 11.0827 7.46348 11.0827 6.99935C11.0827 6.53522 11.2671 6.0901 11.5952 5.76191C11.9234 5.43372 12.3686 5.24935 12.8327 5.24935V4.08268C12.8327 3.77326 12.7098 3.47652 12.491 3.25772C12.2722 3.03893 11.9754 2.91602 11.666 2.91602H2.33268C2.02326 2.91602 1.72652 3.03893 1.50772 3.25772C1.28893 3.47652 1.16602 3.77326 1.16602 4.08268V5.24935Z" stroke="white" stroke-width="1.16667" stroke-linecap="round" stroke-linejoin="round"/>
<path d="M7.58398 2.91602V4.08268" stroke="white" stroke-width="1.16667" stroke-linecap="round" stroke-linejoin="round"/>
<path d="M7.58398 9.91602V11.0827" stroke="white" stroke-width="1.16667" stroke-linecap="round" stroke-linejoin="round"/>
<path d="M7.58398 6.41602V7.58268" stroke="white" stroke-width="1.16667" stroke-linecap="round" stroke-linejoin="round"/>
</g>
<defs>
<clipPath id="clip0_1278_5328">
<rect width="14" height="14" fill="white"/>
</clipPath>
</defs>
</svg>
