<svg width="14" height="14" viewBox="0 0 14 14" fill="none" xmlns="http://www.w3.org/2000/svg">
<path d="M5.83398 6.41602V9.91602" stroke="#0A0A0A" stroke-width="1.16667" stroke-linecap="round" stroke-linejoin="round"/>
<path d="M8.16602 6.41602V9.91602" stroke="#0A0A0A" stroke-width="1.16667" stroke-linecap="round" stroke-linejoin="round"/>
<path d="M11.0827 3.5V11.6667C11.0827 11.9761 10.9598 12.2728 10.741 12.4916C10.5222 12.7104 10.2254 12.8333 9.91602 12.8333H4.08268C3.77326 12.8333 3.47652 12.7104 3.25772 12.4916C3.03893 12.2728 2.91602 11.9761 2.91602 11.6667V3.5" stroke="#0A0A0A" stroke-width="1.16667" stroke-linecap="round" stroke-linejoin="round"/>
<path d="M1.75 3.5H12.25" stroke="#0A0A0A" stroke-width="1.16667" stroke-linecap="round" stroke-linejoin="round"/>
<path d="M4.66602 3.49935V2.33268C4.66602 2.02326 4.78893 1.72652 5.00772 1.50772C5.22652 1.28893 5.52326 1.16602 5.83268 1.16602H8.16602C8.47543 1.16602 8.77218 1.28893 8.99097 1.50772C9.20977 1.72652 9.33268 2.02326 9.33268 2.33268V3.49935" stroke="#0A0A0A" stroke-width="1.16667" stroke-linecap="round" stroke-linejoin="round"/>
</svg>
