<svg width="17" height="16" viewBox="0 0 17 16" fill="none" xmlns="http://www.w3.org/2000/svg">
<path d="M4.98014 6.00033H3.98014C3.53812 6.00033 3.11419 5.82473 2.80163 5.51217C2.48907 5.19961 2.31348 4.77569 2.31348 4.33366C2.31348 3.89163 2.48907 3.46771 2.80163 3.15515C3.11419 2.84259 3.53812 2.66699 3.98014 2.66699H4.98014" stroke="#374151" stroke-width="1.33333" stroke-linecap="round" stroke-linejoin="round"/>
<path d="M12.98 6.00033H13.98C14.422 6.00033 14.8459 5.82473 15.1585 5.51217C15.4711 5.19961 15.6466 4.77569 15.6466 4.33366C15.6466 3.89163 15.4711 3.46771 15.1585 3.15515C14.8459 2.84259 14.422 2.66699 13.98 2.66699H12.98" stroke="#374151" stroke-width="1.33333" stroke-linecap="round" stroke-linejoin="round"/>
<path d="M3.64648 14.667H14.3132" stroke="#374151" stroke-width="1.33333" stroke-linecap="round" stroke-linejoin="round"/>
<path d="M7.64648 9.77344V11.3334C7.64648 11.7001 7.33315 11.9868 6.99982 12.1401C6.21315 12.5001 5.64648 13.4934 5.64648 14.6668" stroke="#374151" stroke-width="1.33333" stroke-linecap="round" stroke-linejoin="round"/>
<path d="M10.3135 9.77344V11.3334C10.3135 11.7001 10.6268 11.9868 10.9601 12.1401C11.7468 12.5001 12.3135 13.4934 12.3135 14.6668" stroke="#374151" stroke-width="1.33333" stroke-linecap="round" stroke-linejoin="round"/>
<path d="M12.98 1.33301H4.97998V5.99967C4.97998 7.06054 5.40141 8.07796 6.15155 8.8281C6.9017 9.57825 7.91911 9.99967 8.97998 9.99967C10.0408 9.99967 11.0583 9.57825 11.8084 8.8281C12.5586 8.07796 12.98 7.06054 12.98 5.99967V1.33301Z" stroke="#374151" stroke-width="1.33333" stroke-linecap="round" stroke-linejoin="round"/>
</svg>
