<svg width="20" height="20" viewBox="0 0 20 20" fill="none" xmlns="http://www.w3.org/2000/svg">
<path d="M18.1701 10.4376C18.1701 9.85213 18.1179 9.28961 18.0199 8.75H10.25V11.941H14.6897C14.4982 12.9725 13.9174 13.8456 13.0433 14.4311V16.5006H15.7094C17.2696 15.065 18.1701 12.9496 18.1701 10.4376Z" fill="#3E82F1"/>
<path d="M10.2512 18.5008C12.4783 18.5008 14.3464 17.7624 15.7114 16.5017L13.0454 14.4321C12.307 14.9269 11.3616 15.22 10.2521 15.22C8.10372 15.22 6.28424 13.7688 5.63561 11.8184H2.87891V13.9557C4.23573 16.652 7.02633 18.5008 10.2512 18.5008Z" fill="#32A753"/>
<path d="M5.63346 11.8174C5.46855 11.3227 5.37511 10.794 5.37511 10.2498C5.37511 9.70565 5.46855 9.17703 5.63346 8.68231V6.54492H2.87767C2.31882 7.65896 2 8.91867 2 10.2498C2 11.581 2.31882 12.8407 2.87767 13.9548L5.63346 11.8174Z" fill="#F9BB00"/>
<path d="M10.2512 5.28074C11.4623 5.28074 12.5498 5.69667 13.4046 6.5148L15.771 4.14838C14.3418 2.81721 12.4747 2 10.2512 2C7.02633 2 4.23573 3.8488 2.87891 6.54503L5.63561 8.68241C6.28333 6.73193 8.10281 5.28074 10.2512 5.28074Z" fill="#E74133"/>
</svg>
